<?xml version="1.0" standalone="no"?>
<!DOCTYPE svg PUBLIC "-//W3C//DTD SVG 20010904//EN"
 "http://www.w3.org/TR/2001/REC-SVG-20010904/DTD/svg10.dtd">
<svg version="1.0" xmlns="http://www.w3.org/2000/svg"
 width="4961.000000pt" height="3508.000000pt" viewBox="0 0 4961.000000 3508.000000"
 preserveAspectRatio="xMidYMid meet">

<g transform="translate(0.000000,3508.000000) scale(0.100000,-0.100000)"
fill="#000000" stroke="none">
<path d="M27512 29867 c-190 -112 -313 -208 -478 -372 -161 -160 -262 -277
-397 -457 -99 -133 -153 -226 -235 -408 -35 -78 -102 -298 -152 -495 -26 -104
-68 -254 -94 -333 -25 -79 -57 -189 -71 -245 -104 -417 -119 -467 -203 -671
-9 -22 -50 -74 -92 -116 -80 -83 -270 -245 -307 -262 -13 -6 -23 -15 -23 -20
0 -4 -7 -8 -15 -8 -7 0 -18 -6 -22 -13 -13 -20 -122 -87 -166 -103 -23 -8 -57
-24 -75 -34 -18 -11 -43 -20 -56 -20 -12 0 -26 -4 -32 -9 -5 -5 -34 -19 -64
-32 -52 -22 -204 -105 -262 -143 -23 -15 -42 -17 -120 -12 -164 9 -220 35
-338 156 -86 88 -124 156 -146 262 -16 72 -20 222 -9 259 3 10 11 51 16 91 19
143 28 194 38 238 7 25 16 86 22 135 5 50 14 124 20 165 17 125 21 241 10 315
-16 108 -50 264 -73 330 -6 17 -13 48 -17 71 -4 23 -19 62 -34 87 -15 25 -27
52 -27 60 0 16 -30 79 -41 87 -4 3 -17 25 -29 50 -76 152 -280 426 -430 579
-25 25 -55 57 -65 71 -11 14 -36 37 -55 51 -20 15 -85 73 -144 129 -60 56
-118 106 -130 111 -23 10 -60 33 -97 62 -107 80 -151 93 -187 55 l-21 -23 68
-121 c152 -274 300 -695 371 -1054 26 -132 36 -330 20 -416 -18 -105 -46 -157
-119 -228 -155 -149 -435 -462 -498 -554 -62 -93 -142 -238 -189 -347 -31 -69
-63 -130 -135 -255 -70 -122 -218 -259 -311 -287 -104 -31 -230 -1 -378 89
-46 29 -91 58 -100 65 -197 163 -275 313 -411 791 -26 91 -43 129 -87 195
-192 288 -320 431 -440 491 -26 13 -112 44 -192 70 -162 53 -331 137 -454 224
-171 123 -386 355 -476 515 -17 31 -36 57 -41 57 -14 0 -24 -70 -23 -165 1
-197 85 -377 349 -748 19 -27 39 -67 45 -90 5 -23 34 -89 64 -147 65 -125 138
-333 168 -479 34 -161 32 -359 -5 -505 -35 -139 -97 -266 -200 -410 -44 -61
-96 -140 -115 -176 -78 -142 -190 -260 -304 -320 -35 -18 -83 -49 -108 -70
-148 -122 -305 -168 -600 -177 -203 -6 -416 10 -580 43 -199 40 -486 159 -676
281 -60 39 -141 86 -180 106 -184 92 -421 277 -545 424 -153 183 -238 327
-294 499 -46 140 -59 244 -52 444 6 175 20 257 67 397 17 52 23 83 16 83 -21
0 -236 -211 -317 -313 -92 -113 -129 -184 -159 -302 -50 -194 -62 -389 -35
-551 30 -173 78 -305 220 -604 201 -422 233 -670 124 -956 -74 -195 -260 -353
-479 -409 -204 -52 -492 -28 -742 61 -162 58 -337 161 -453 266 -168 151 -303
311 -469 555 -132 195 -219 357 -265 494 -20 61 -49 120 -82 169 -66 97 -116
198 -168 340 -120 326 -155 397 -262 530 -212 262 -542 491 -914 635 -338 131
-782 241 -872 216 -27 -7 -24 -10 56 -50 221 -112 540 -361 694 -543 61 -73
231 -316 268 -385 58 -108 81 -194 134 -498 9 -55 20 -107 23 -115 3 -8 7 -24
8 -35 6 -38 13 -80 18 -115 18 -104 26 -256 31 -580 3 -168 8 -321 10 -340 15
-122 37 -210 72 -289 8 -18 16 -39 18 -45 1 -6 20 -49 42 -96 22 -47 51 -119
63 -160 13 -41 27 -79 31 -85 4 -5 12 -26 17 -45 6 -19 26 -71 46 -115 19 -44
37 -91 40 -105 3 -14 15 -56 26 -95 18 -60 21 -90 18 -206 -5 -155 -8 -161
-106 -255 -101 -97 -231 -128 -427 -104 -203 25 -248 33 -390 76 -344 102
-465 125 -820 155 -314 26 -837 98 -960 133 -87 25 -267 92 -325 121 -14 7
-36 17 -50 22 -14 5 -101 47 -195 93 -246 121 -374 204 -465 303 -210 230
-334 539 -344 860 -4 121 14 353 30 378 3 5 7 33 9 63 5 67 -12 92 -72 101
-41 6 -42 5 -69 -35 -16 -23 -36 -63 -45 -89 -34 -93 -66 -187 -84 -246 -9
-33 -21 -69 -25 -80 -5 -11 -11 -33 -13 -50 -3 -16 -13 -66 -22 -110 -9 -44
-18 -91 -20 -105 -13 -98 -16 -117 -20 -130 -21 -80 -25 -674 -5 -820 8 -52
14 -104 15 -115 2 -11 5 -27 9 -35 3 -8 7 -35 9 -60 2 -25 7 -52 10 -60 4 -8
11 -35 16 -60 17 -78 31 -134 48 -180 35 -100 67 -178 92 -225 14 -27 26 -55
26 -61 0 -6 5 -18 11 -25 6 -8 18 -27 26 -44 32 -63 71 -127 95 -155 7 -8 48
-55 93 -105 44 -49 80 -94 80 -99 0 -5 10 -18 22 -30 21 -21 168 -179 266
-287 23 -25 42 -51 42 -58 0 -6 4 -11 9 -11 5 0 20 -21 34 -47 49 -96 133
-242 166 -293 9 -14 32 -70 50 -125 32 -94 60 -155 125 -267 21 -37 29 -65 33
-125 6 -92 -12 -197 -41 -237 -29 -41 -68 -75 -86 -76 -8 0 -33 -7 -55 -15
-30 -10 -93 -14 -252 -15 -116 0 -214 4 -217 9 -3 4 -49 9 -102 10 -60 1 -103
6 -112 14 -8 6 -49 15 -91 19 -152 14 -206 24 -231 40 -14 9 -52 20 -85 23
-33 4 -71 13 -85 20 -14 7 -45 16 -70 20 -25 4 -56 13 -70 20 -14 7 -48 16
-75 21 -27 4 -81 18 -120 31 -38 13 -132 37 -208 53 -231 48 -364 98 -473 175
-78 56 -124 111 -166 200 -54 117 -51 290 8 423 13 30 21 58 18 61 -3 3 -59
-49 -123 -116 -122 -126 -225 -264 -265 -356 -57 -128 -76 -310 -52 -492 36
-272 111 -435 280 -614 144 -150 326 -262 696 -426 376 -166 624 -316 806
-488 100 -94 135 -156 142 -247 9 -126 -31 -189 -179 -285 -199 -130 -361
-196 -666 -274 -186 -47 -245 -70 -288 -111 -32 -30 -192 -98 -253 -107 -20
-3 -50 -13 -67 -21 -16 -8 -61 -21 -100 -29 -38 -8 -76 -20 -83 -26 -58 -47
-410 -35 -676 23 -287 63 -292 65 -535 187 -433 217 -432 216 -554 376 -32 42
-102 122 -154 179 -104 111 -149 176 -237 338 -100 182 -185 283 -375 445
-253 215 -419 320 -660 416 -40 16 -119 58 -175 93 -131 82 -265 150 -356 181
-41 14 -85 33 -99 42 -79 53 -239 131 -281 136 -40 6 -189 42 -238 58 -19 6
-35 9 -38 7 -2 -3 37 -41 87 -86 192 -174 398 -425 605 -737 178 -266 338
-616 473 -1030 75 -229 121 -326 286 -600 202 -334 355 -536 572 -752 270
-268 608 -491 977 -643 82 -34 166 -70 187 -81 21 -10 57 -19 80 -19 40 0 118
-18 129 -30 7 -8 62 -27 185 -66 61 -19 121 -41 135 -48 14 -8 41 -17 60 -21
19 -3 84 -22 143 -41 60 -19 123 -34 140 -34 18 0 41 -6 52 -14 11 -8 43 -16
70 -19 163 -17 222 -27 346 -58 20 -5 58 -9 85 -9 27 0 74 -7 104 -15 30 -8
74 -15 96 -15 23 0 72 -13 110 -28 38 -16 103 -34 144 -41 297 -52 482 -236
483 -481 0 -95 -18 -154 -73 -240 -59 -92 -242 -210 -328 -210 -20 0 -73 -12
-117 -25 -148 -47 -284 -66 -472 -66 -181 0 -257 9 -363 43 -67 21 -170 71
-228 109 -43 28 -40 13 10 -63 182 -275 345 -390 668 -468 19 -5 63 -15 97
-24 92 -23 262 -37 461 -37 183 0 276 8 422 36 149 28 193 34 300 41 161 11
191 9 235 -16 107 -60 136 -131 97 -243 -13 -41 -38 -73 -117 -153 -119 -121
-196 -179 -288 -217 -219 -89 -191 -82 -327 -80 -69 1 -199 9 -290 17 -211 20
-874 32 -995 18 -419 -47 -784 -126 -1030 -224 -55 -22 -140 -50 -190 -63
-138 -35 -283 -92 -395 -156 -8 -4 -49 -27 -90 -50 -41 -23 -77 -45 -80 -49
-3 -3 -32 -21 -65 -40 -33 -19 -88 -52 -121 -74 -112 -75 -461 -430 -599 -611
-38 -49 -75 -94 -82 -100 -14 -11 -83 -123 -83 -135 0 -4 -11 -19 -25 -34 -39
-42 -124 -225 -136 -291 -6 -33 -17 -91 -25 -130 -20 -96 -18 -234 5 -352 10
-54 22 -118 26 -143 16 -98 127 -353 213 -490 41 -65 184 -217 262 -279 112
-89 580 -288 545 -232 -3 6 -48 40 -100 76 -52 36 -99 74 -104 84 -6 10 -37
52 -71 92 -40 49 -86 125 -135 224 l-75 150 -6 121 c-7 132 2 193 42 279 76
160 178 277 334 380 63 42 135 95 160 119 25 24 81 67 125 96 44 30 89 62 101
72 22 19 123 70 164 83 14 4 37 16 52 26 14 11 33 19 42 19 8 0 30 6 48 14 18
7 51 19 72 26 38 12 62 16 226 41 41 6 91 17 110 25 19 8 69 19 110 24 41 5
95 14 120 19 70 14 375 16 475 2 50 -7 116 -14 147 -16 31 -2 74 -8 95 -14 21
-6 50 -11 64 -11 15 0 39 -6 54 -14 15 -8 51 -18 79 -21 28 -4 64 -14 79 -22
16 -8 35 -12 42 -10 7 3 24 0 38 -8 14 -7 45 -15 69 -18 58 -7 119 -21 203
-47 133 -41 170 -51 212 -60 24 -5 56 -16 72 -25 17 -8 40 -15 52 -15 27 0
191 -49 204 -61 5 -5 25 -9 45 -9 20 0 53 -9 75 -20 22 -11 55 -20 74 -20 19
0 48 -4 65 -9 17 -5 58 -17 91 -26 57 -17 77 -23 128 -44 12 -5 36 -12 52 -14
54 -8 145 -36 187 -58 46 -23 136 -49 173 -49 13 0 27 -4 30 -10 3 -5 21 -10
39 -10 17 0 37 -5 44 -12 7 -7 36 -15 64 -19 29 -4 78 -13 108 -19 30 -6 82
-15 115 -20 33 -5 87 -14 120 -19 33 -6 101 -13 150 -17 50 -4 95 -11 101 -15
26 -20 568 2 774 31 229 33 427 37 454 10 6 -6 21 -10 36 -10 14 0 41 -6 60
-13 196 -72 324 -242 336 -447 4 -84 -47 -265 -102 -360 -8 -14 -30 -56 -49
-95 -19 -38 -53 -101 -75 -140 -36 -63 -101 -192 -208 -415 -20 -41 -60 -112
-89 -157 -29 -45 -67 -114 -84 -155 -17 -40 -35 -77 -39 -83 -20 -27 -55 -146
-87 -295 -19 -91 -46 -217 -59 -280 -13 -63 -26 -122 -29 -130 -2 -8 -7 -44
-11 -80 -3 -36 -10 -92 -15 -125 -30 -196 -42 -447 -28 -593 9 -87 43 -274 59
-327 5 -16 17 -57 26 -90 24 -85 90 -223 130 -272 19 -23 34 -44 34 -47 0 -6
27 -39 95 -114 40 -45 123 -108 131 -99 2 2 -1 37 -8 78 -16 102 -17 656 -1
712 6 23 24 96 38 162 35 156 93 337 163 505 88 213 169 355 291 507 143 179
429 417 536 447 69 19 223 54 265 60 19 3 73 11 120 19 50 8 136 12 215 11
157 -4 153 -4 190 -15 17 -4 62 -13 100 -18 39 -5 87 -14 108 -20 20 -6 52
-15 70 -20 58 -17 182 -62 192 -70 5 -5 22 -11 37 -15 15 -3 33 -12 40 -20 8
-7 30 -21 48 -31 19 -10 49 -29 66 -41 17 -13 34 -24 37 -24 4 0 26 -15 50
-32 23 -18 80 -60 126 -93 47 -33 91 -67 100 -75 9 -8 66 -54 126 -102 141
-111 222 -189 231 -222 3 -14 10 -26 14 -26 10 0 120 -224 120 -245 0 -9 7
-18 15 -21 9 -4 15 -11 14 -18 -1 -6 3 -24 10 -41 33 -85 44 -112 52 -127 5
-10 9 -24 9 -32 0 -8 7 -27 15 -43 46 -90 110 -344 136 -543 5 -41 14 -97 18
-125 5 -27 16 -90 24 -140 24 -141 45 -227 67 -280 7 -16 15 -41 17 -54 2 -14
9 -33 14 -43 5 -10 7 -22 4 -27 -7 -13 38 -137 88 -241 23 -47 75 -137 116
-200 41 -63 81 -126 89 -140 7 -14 19 -32 26 -40 7 -8 15 -22 18 -31 10 -27
169 -221 233 -284 176 -172 262 -231 570 -391 360 -187 588 -264 899 -304 188
-24 245 -25 463 -5 285 26 500 73 721 156 107 41 276 122 286 137 3 5 -61 12
-142 15 -182 8 -503 47 -722 87 -452 84 -671 178 -904 391 -283 257 -397 707
-275 1081 94 289 304 547 604 743 110 72 340 181 481 228 140 46 303 84 491
112 55 8 145 26 200 39 160 40 274 50 507 43 412 -12 701 -54 892 -128 168
-66 266 -134 457 -319 130 -125 234 -278 354 -525 96 -196 116 -245 138 -349
42 -196 56 -251 65 -268 6 -10 10 -27 10 -37 0 -52 139 -439 180 -501 6 -8 15
-26 20 -39 33 -76 155 -236 265 -346 172 -172 229 -225 244 -225 7 0 9 -4 6
-10 -3 -5 0 -10 9 -10 8 0 16 -3 18 -7 9 -21 295 -233 314 -233 6 0 18 -8 28
-19 9 -10 36 -27 59 -37 23 -10 44 -21 47 -24 16 -16 165 -80 188 -80 64 1 59
14 -44 117 -88 88 -144 155 -252 303 -49 68 -122 179 -122 187 0 3 -11 29 -24
57 -13 28 -27 62 -30 76 -4 14 -13 48 -20 75 -38 141 -49 223 -49 385 -1 134
3 186 22 280 26 128 68 263 112 358 16 35 29 67 29 71 0 5 25 46 55 91 30 45
55 86 55 90 0 5 4 10 9 12 4 2 33 33 64 69 55 65 56 66 166 102 61 20 119 37
128 37 10 0 65 14 123 30 158 46 347 65 485 50 226 -25 382 -92 522 -224 187
-176 297 -423 338 -756 90 -741 141 -972 268 -1200 57 -104 235 -356 325 -461
120 -140 182 -277 182 -400 0 -127 -79 -346 -179 -496 -60 -89 -202 -220 -327
-299 l-107 -69 39 -3 c71 -5 321 24 330 39 3 5 17 9 32 9 15 0 36 7 46 15 11
8 29 15 41 15 12 0 25 4 31 9 5 4 41 20 79 35 109 43 285 149 355 215 9 9 34
32 55 50 32 30 141 154 163 187 94 139 134 274 136 462 1 68 -2 126 -7 129 -5
3 -6 11 -3 19 3 7 1 16 -3 18 -4 3 -11 32 -14 66 -4 33 -16 95 -28 137 -11 43
-29 109 -39 147 -10 38 -23 73 -29 79 -6 6 -11 20 -11 32 0 12 -4 25 -8 30 -5
6 -17 33 -27 60 -10 28 -28 73 -41 100 -12 28 -28 70 -35 95 -7 25 -16 50 -21
56 -12 17 -35 111 -41 169 -3 28 -9 66 -12 85 -25 122 6 403 67 600 48 160
149 375 246 524 89 138 251 297 356 349 41 20 82 37 90 37 8 0 17 4 20 9 3 4
25 11 48 15 24 4 61 13 83 20 22 8 85 15 140 17 191 6 460 4 520 -3 167 -21
199 -27 250 -48 11 -5 36 -11 56 -14 19 -4 53 -15 74 -26 22 -11 44 -20 50
-20 55 0 367 -300 510 -490 27 -36 53 -66 57 -68 4 -2 8 -8 8 -13 0 -5 16 -31
35 -58 19 -26 35 -52 35 -56 0 -5 6 -16 14 -24 19 -23 69 -124 101 -206 15
-38 34 -84 41 -102 8 -17 14 -40 14 -50 0 -10 4 -23 10 -29 15 -15 33 -155 28
-229 -3 -45 -13 -88 -28 -120 -13 -27 -24 -54 -25 -60 0 -5 -3 -14 -7 -20 -3
-5 -29 -55 -58 -110 -29 -55 -58 -107 -65 -115 -6 -8 -22 -36 -33 -62 -12 -27
-31 -67 -42 -91 -11 -24 -20 -53 -20 -65 0 -11 -4 -24 -10 -27 -5 -3 -10 -23
-10 -44 0 -20 -4 -41 -9 -46 -10 -10 -33 -197 -34 -265 -1 -41 12 -165 20
-198 3 -13 16 -45 28 -70 12 -26 28 -62 36 -80 25 -57 40 -41 33 36 -15 164
68 362 227 538 35 40 87 98 114 130 28 32 108 114 178 183 236 231 276 304
327 598 6 35 10 145 9 245 -2 101 1 203 5 228 18 111 69 358 79 390 35 107
212 313 382 446 47 37 165 117 185 127 8 4 62 32 120 63 149 79 264 125 365
145 103 21 160 26 185 17 14 -6 51 -12 82 -14 31 -3 69 -11 85 -19 15 -8 33
-15 38 -15 20 0 145 -143 162 -186 7 -16 30 -57 98 -172 32 -55 72 -100 188
-215 141 -140 290 -263 352 -292 22 -11 44 -25 48 -32 4 -7 14 -13 21 -13 7 0
44 -15 82 -34 143 -69 181 -86 196 -86 9 0 21 -7 28 -15 7 -8 23 -15 36 -15
12 0 25 -4 28 -9 3 -5 18 -11 33 -14 16 -3 73 -15 128 -26 55 -12 114 -24 130
-26 100 -16 262 -45 425 -76 36 -7 86 -13 112 -14 27 -1 51 -5 55 -8 3 -4 38
-7 77 -7 39 0 123 -7 187 -14 64 -8 122 -14 130 -13 8 1 77 -2 154 -7 209 -12
671 -10 830 3 154 13 505 16 630 7 105 -8 289 -34 340 -48 179 -48 227 -68
346 -143 80 -50 178 -156 221 -241 44 -86 50 -100 65 -168 16 -74 26 -373 13
-391 -4 -5 -8 -17 -8 -25 0 -8 -3 -25 -6 -38 -3 -13 -10 -58 -16 -99 -6 -42
-15 -82 -21 -89 -7 -8 -7 -14 0 -19 31 -18 253 386 322 585 32 93 33 99 33
265 1 187 -13 261 -75 412 -27 64 -43 84 -147 185 -104 100 -134 122 -262 195
-174 98 -355 172 -533 218 -147 37 -277 55 -602 85 -437 40 -782 113 -1009
215 -308 137 -496 423 -496 752 0 149 36 247 128 352 68 77 275 188 442 236
30 9 89 27 131 41 42 13 85 24 95 24 11 0 52 14 93 31 89 37 243 79 295 79 42
0 126 17 294 59 20 6 73 17 117 27 44 9 97 22 118 30 20 8 47 14 59 14 21 0
232 68 293 94 17 7 46 19 65 26 32 12 94 40 130 59 8 4 31 15 50 24 19 8 94
44 165 79 153 75 275 121 365 137 97 17 243 21 345 10 50 -5 104 -11 120 -13
136 -15 397 -250 650 -586 162 -215 444 -467 730 -655 61 -40 202 -125 314
-190 113 -64 272 -159 355 -209 864 -529 1474 -759 2071 -783 331 -13 592 45
1085 240 248 97 280 107 363 107 59 0 77 4 90 18 10 10 17 21 17 24 0 3 -134
3 -298 0 -340 -6 -481 4 -696 48 -301 61 -499 118 -751 215 -204 79 -498 238
-810 440 -245 158 -443 339 -598 545 -50 66 -110 134 -143 160 -68 54 -215
215 -297 325 -129 175 -246 411 -351 710 -32 88 -65 178 -75 200 -11 22 -22
49 -26 60 -12 33 -16 211 -5 239 6 16 6 27 -1 31 -5 4 6 21 25 38 54 50 64 57
81 57 8 0 15 5 15 10 0 6 20 15 44 22 25 6 43 15 40 20 -3 4 -2 8 3 9 4 0 42
2 83 5 41 3 81 7 88 9 6 2 12 1 12 -4 0 -4 21 -6 46 -4 25 3 51 0 57 -5 7 -5
39 -15 72 -22 33 -7 70 -19 82 -26 12 -8 29 -14 38 -14 9 0 35 -9 57 -20 23
-11 53 -20 67 -20 14 0 37 -6 51 -13 14 -8 40 -16 56 -20 17 -3 73 -31 124
-62 123 -75 208 -111 446 -185 420 -132 730 -191 1009 -193 141 -1 174 2 280
26 571 131 942 255 1265 424 162 84 198 108 256 173 360 404 564 911 523 1300
-10 97 -49 261 -74 311 -32 63 -86 149 -94 149 -5 0 -16 -39 -25 -87 -77 -397
-197 -656 -401 -864 -224 -228 -503 -360 -859 -404 -315 -39 -629 7 -962 140
-265 107 -442 216 -599 370 -247 242 -351 532 -301 840 36 215 85 369 190 595
35 74 71 160 81 190 24 75 115 267 156 326 134 199 397 430 776 681 181 121
262 166 623 347 228 115 439 217 468 227 83 28 409 77 592 89 172 10 563 1
795 -20 190 -17 636 -7 855 19 466 55 896 169 1183 312 115 58 273 160 342
221 28 24 73 61 100 83 351 278 690 638 896 950 113 171 244 440 304 625 15
47 40 119 55 160 87 240 225 691 257 840 45 214 52 259 68 404 18 172 19 199
5 191 -6 -4 -41 -68 -79 -143 -58 -116 -116 -224 -228 -422 -75 -132 -224
-342 -351 -494 -404 -483 -833 -864 -1374 -1220 -488 -320 -973 -542 -1337
-611 -117 -23 -301 -35 -529 -35 -230 0 -316 13 -508 75 -126 42 -191 72 -289
137 -161 107 -267 222 -349 381 -42 81 -46 96 -36 114 11 16 9 30 -8 79 -39
114 -55 222 -48 324 7 122 25 187 86 314 43 90 59 111 132 181 65 62 109 94
199 141 70 38 139 66 175 74 32 6 103 22 158 36 132 33 289 44 463 34 78 -5
147 -11 152 -14 5 -3 53 -10 106 -16 159 -16 437 -85 610 -151 222 -84 246
-91 275 -79 16 7 36 20 45 30 15 17 12 23 -59 106 -194 230 -349 364 -646 558
-189 123 -332 191 -445 212 -49 9 -144 30 -210 46 -66 17 -142 34 -170 38 -27
4 -86 15 -130 24 -220 45 -432 58 -650 40 -169 -14 -274 -29 -315 -44 -14 -4
-52 -16 -85 -25 -104 -30 -170 -54 -246 -91 -134 -65 -233 -102 -322 -120 -78
-15 -104 -16 -225 -5 -284 24 -431 89 -605 267 -90 93 -142 179 -192 321 -22
62 -27 91 -26 171 0 113 14 220 32 253 28 53 133 171 169 189 21 11 44 25 51
33 13 12 35 19 174 53 94 22 215 30 590 39 355 8 792 39 835 58 14 6 39 12 55
13 87 7 225 52 354 117 135 68 333 244 382 339 11 21 23 38 27 38 5 0 16 19
26 43 9 23 24 57 32 75 8 18 14 44 14 57 0 13 4 26 9 30 6 3 10 13 10 23 0 9
5 37 11 62 6 25 21 99 32 165 11 66 28 172 39 235 10 63 19 124 19 136 0 11 9
45 20 75 11 29 20 59 20 67 0 21 77 174 112 223 64 90 259 299 278 299 18 0
12 85 -8 103 -30 28 -109 22 -193 -14 -84 -36 -245 -123 -274 -149 -11 -9 -28
-21 -37 -26 -28 -15 -111 -101 -151 -156 -59 -84 -87 -128 -87 -140 0 -6 -6
-19 -13 -27 -8 -9 -19 -32 -26 -51 -7 -19 -28 -71 -47 -115 -18 -44 -49 -123
-69 -175 -20 -52 -41 -103 -46 -112 -5 -10 -9 -23 -9 -29 0 -5 -11 -25 -25
-43 -14 -18 -25 -36 -25 -39 0 -16 -56 -86 -98 -123 -58 -50 -169 -124 -186
-124 -8 0 -31 -8 -52 -17 -28 -12 -66 -16 -136 -16 -90 1 -99 3 -140 31 -24
16 -82 67 -129 113 -140 136 -195 276 -164 421 8 38 22 81 33 96 10 15 31 63
47 107 60 169 122 280 249 450 76 101 356 387 501 512 345 299 770 487 1180
522 244 22 450 13 880 -34 381 -43 695 -58 695 -35 0 14 -126 72 -367 170
-106 43 -202 88 -214 99 -12 11 -32 23 -43 26 -50 13 -104 29 -144 41 -23 8
-50 14 -58 14 -8 0 -36 6 -62 14 -26 8 -92 25 -147 37 -169 37 -391 99 -464
131 -138 59 -309 108 -410 116 -177 14 -470 -3 -641 -37 -167 -33 -401 -126
-497 -197 -17 -13 -34 -24 -37 -24 -12 0 -213 -145 -271 -196 -88 -77 -217
-210 -281 -289 -101 -124 -97 -120 -204 -236 -52 -57 -145 -157 -206 -224
-232 -252 -499 -462 -746 -586 -337 -169 -836 -259 -1129 -203 -262 50 -560
215 -807 449 -96 91 -248 284 -272 345 -8 19 -24 51 -36 71 -48 78 -59 133
-59 299 1 161 10 255 28 279 6 7 14 36 19 65 13 91 25 140 47 189 11 27 21 59
21 71 0 12 7 31 15 42 8 10 15 28 15 39 0 11 18 44 40 73 42 56 65 107 81 182
15 74 18 78 95 163 40 45 74 86 74 90 0 4 17 38 39 76 86 152 101 232 104 556
2 186 -16 262 -79 338 -13 16 -24 35 -24 44 0 25 -51 145 -85 198 -35 55 -121
142 -161 163 -22 11 -29 11 -51 -3 -20 -13 -23 -22 -18 -43 42 -167 49 -223
49 -377 1 -321 -78 -535 -265 -725 -41 -41 -103 -112 -138 -158 -36 -46 -142
-158 -237 -249 -247 -235 -390 -428 -551 -738 -59 -112 -80 -143 -156 -221
-79 -82 -101 -98 -205 -151 -65 -33 -126 -62 -137 -66 -11 -3 -45 -15 -75 -26
-106 -39 -317 -43 -360 -6 -8 7 -28 15 -43 19 -53 12 -197 188 -197 239 0 9
-4 19 -10 22 -5 3 -10 15 -10 26 0 10 -4 27 -10 37 -23 42 -53 222 -53 327 -1
71 3 90 36 164 82 188 164 302 394 548 172 185 272 312 323 414 124 244 145
633 55 1015 -30 127 -88 306 -123 381 l-27 58 -6 -65 c-15 -146 -50 -349 -79
-451 -40 -139 -113 -338 -151 -410 -32 -59 -113 -165 -180 -236 -43 -45 -157
-125 -205 -144 -16 -6 -40 -16 -54 -22 -14 -6 -32 -12 -40 -13 -8 -1 -60 -13
-114 -28 -55 -14 -103 -23 -108 -20 -5 3 -38 -4 -73 -15 -35 -12 -74 -21 -87
-21 -13 0 -36 -7 -52 -15 -15 -8 -39 -15 -52 -15 -12 0 -25 -4 -28 -8 -3 -5
-33 -17 -68 -27 -66 -20 -77 -25 -143 -66 -22 -13 -42 -24 -45 -24 -2 0 -14
-9 -27 -20 -12 -11 -41 -36 -65 -55 -61 -51 -160 -152 -258 -264 -120 -138
-210 -205 -349 -262 -80 -33 -213 -22 -381 33 -86 28 -128 63 -166 138 -39 77
-60 113 -74 130 -7 9 -16 64 -20 132 -7 104 -20 164 -42 198 -3 6 -9 28 -13
50 -8 46 -34 126 -47 140 -4 5 -8 18 -8 30 0 24 -22 88 -44 130 -9 17 -16 36
-16 44 0 8 -11 33 -24 55 -13 23 -31 64 -41 91 -10 28 -37 84 -58 125 -22 41
-54 102 -72 136 -17 33 -43 76 -57 95 -14 19 -29 45 -33 59 -7 23 -60 95 -180
243 -27 34 -63 80 -79 101 -17 22 -91 101 -166 175 -75 75 -158 160 -185 190
-26 30 -64 65 -84 78 -20 13 -79 67 -131 118 -52 52 -154 149 -226 214 -225
206 -353 434 -384 685 -13 102 -25 126 -65 126 -19 0 -28 -12 -56 -77 -79
-191 -119 -383 -126 -613 -6 -195 4 -306 51 -537 52 -258 80 -359 124 -458
134 -304 166 -378 193 -459 29 -84 30 -98 25 -191 -6 -117 -10 -143 -29 -210
-34 -119 -94 -201 -245 -337 -52 -47 -200 -115 -262 -121 -20 -2 -40 -6 -45
-9 -6 -3 -53 -1 -106 4 -87 8 -173 26 -399 86 -41 11 -118 27 -170 36 -191 33
-308 70 -392 127 -24 16 -59 39 -78 52 -41 29 -171 157 -209 207 -14 19 -42
55 -62 80 -83 103 -158 256 -179 368 -21 113 34 323 137 524 88 173 309 494
409 594 40 40 42 53 8 78 -22 16 -40 18 -132 14 -105 -4 -108 -4 -157 -40 -70
-52 -199 -155 -254 -204 -25 -22 -80 -65 -121 -96 -126 -94 -353 -335 -458
-487 -80 -115 -202 -328 -202 -352 0 -5 -11 -32 -24 -61 -14 -29 -26 -62 -28
-73 -4 -26 -70 -70 -148 -97 -54 -19 -84 -23 -175 -22 -136 1 -162 11 -243 98
-73 79 -121 173 -152 304 -32 135 -14 234 89 492 136 339 163 605 89 889 -28
111 -123 368 -184 501 -82 181 -88 211 -88 450 0 161 5 233 22 335 63 381 133
612 278 914 41 85 74 156 74 157 0 10 -24 -2 -138 -69z m-2533 -5602 c99 -19
246 -67 316 -103 72 -36 111 -68 159 -131 24 -31 70 -84 102 -117 68 -71 154
-201 154 -234 0 -12 11 -44 25 -72 14 -27 25 -62 25 -77 0 -15 5 -32 12 -39 7
-7 15 -36 19 -64 4 -29 13 -80 19 -113 19 -98 2 -412 -23 -443 -6 -8 -12 -32
-13 -54 -2 -41 -12 -68 -78 -208 -69 -146 -168 -309 -298 -491 -115 -160 -133
-190 -264 -423 -78 -140 -100 -171 -186 -259 -93 -95 -98 -99 -130 -92 -18 4
-43 14 -56 22 -24 14 -71 108 -138 273 -19 47 -45 108 -58 135 -47 103 -54
143 -59 335 -5 188 -1 223 39 375 9 33 25 75 36 93 33 54 22 62 -84 62 -114 0
-153 16 -227 90 -40 40 -68 83 -110 169 l-56 116 -9 260 c-9 265 -6 306 30
460 8 33 23 83 33 110 11 28 27 75 36 105 24 81 92 188 145 227 83 61 143 84
280 107 51 9 278 -3 359 -19z m3178 -190 c159 -30 357 -116 529 -231 93 -61
210 -181 277 -281 217 -330 258 -689 131 -1133 -71 -245 -227 -635 -336 -840
-317 -593 -422 -778 -563 -995 -118 -181 -177 -276 -216 -350 -120 -227 -158
-295 -226 -402 -23 -37 -56 -96 -73 -132 -17 -36 -51 -105 -76 -153 -24 -48
-44 -95 -44 -106 0 -10 -4 -22 -9 -27 -17 -20 -61 -144 -61 -177 0 -18 -7 -42
-15 -52 -8 -11 -15 -38 -15 -61 0 -23 -4 -45 -9 -50 -5 -6 -11 -32 -14 -60 -3
-27 -10 -70 -17 -95 -31 -115 -50 -211 -52 -257 -2 -66 -13 -74 -48 -33 -16
19 -32 43 -35 52 -3 9 -22 27 -41 38 -18 12 -34 26 -34 32 0 17 -331 348 -365
365 -16 9 -64 48 -106 87 -42 39 -138 125 -213 191 -188 165 -231 227 -266
375 -5 19 -18 67 -29 105 -29 101 -40 372 -18 441 9 27 23 85 32 129 9 44 25
99 36 123 10 23 19 51 19 60 0 10 7 27 15 38 8 10 15 32 15 48 0 16 11 54 24
85 14 31 41 99 62 151 20 52 41 99 45 104 5 6 9 18 9 28 0 9 35 56 78 104 42
48 124 140 182 204 93 104 177 205 262 316 59 78 84 109 113 142 43 49 165
271 165 299 0 6 11 31 25 54 14 24 25 53 25 64 0 12 9 38 20 60 11 22 20 56
20 76 0 21 5 50 11 66 31 81 62 328 79 628 15 260 26 367 38 398 7 16 12 50
12 77 0 27 4 51 9 54 5 3 11 20 14 38 7 46 46 135 91 204 54 85 149 154 213
154 17 0 35 5 39 11 4 6 20 9 39 6 18 -3 37 -1 43 5 13 13 82 37 108 38 12 0
58 -7 101 -15z m-8359 -136 c58 -9 142 -43 142 -58 0 -3 14 -12 32 -20 48 -22
185 -158 223 -222 93 -159 64 -337 -120 -734 -82 -179 -164 -391 -196 -510
-58 -217 -70 -357 -64 -805 6 -454 12 -578 31 -607 8 -12 14 -29 14 -36 0 -8
7 -20 15 -27 12 -10 15 -8 19 12 2 12 13 73 25 133 44 241 165 544 285 714
127 180 336 367 513 459 106 55 182 83 318 118 99 25 127 28 275 29 189 0 246
-12 449 -91 154 -61 225 -101 330 -189 233 -193 415 -472 523 -800 79 -238 98
-367 98 -665 0 -222 -9 -330 -41 -485 -44 -208 -204 -642 -351 -945 -74 -154
-105 -233 -228 -580 -64 -180 -70 -197 -128 -330 -70 -163 -219 -473 -440
-920 -208 -422 -209 -424 -352 -529 -106 -79 -194 -108 -349 -115 -139 -7
-189 6 -359 91 -139 69 -184 111 -246 233 -26 49 -75 132 -109 183 -63 95
-121 224 -137 305 -5 26 -34 121 -65 212 -50 149 -242 803 -310 1055 -15 55
-65 226 -112 380 -47 154 -107 361 -134 460 -92 335 -131 479 -170 635 -60
232 -69 262 -81 258 -5 -2 -32 -46 -59 -98 -52 -99 -61 -145 -84 -384 -12
-132 -54 -302 -135 -543 -54 -163 -89 -288 -106 -380 -36 -189 -64 -299 -117
-444 -24 -68 -57 -176 -72 -239 -36 -154 -60 -228 -107 -333 -40 -89 -63 -175
-113 -412 -68 -329 -170 -636 -288 -864 -147 -288 -340 -432 -573 -432 -169 1
-297 76 -435 257 -195 256 -321 515 -484 994 -128 377 -306 806 -493 1190
-152 312 -186 409 -287 824 -35 144 -84 333 -110 421 -68 234 -89 369 -82 530
14 310 109 631 248 836 70 105 201 271 249 317 157 153 392 236 768 272 192
19 398 -13 550 -85 300 -142 605 -522 842 -1046 28 -63 56 -117 62 -120 6 -4
8 -14 5 -22 -3 -9 0 -21 8 -27 11 -9 15 -4 20 27 4 21 10 47 15 58 24 58 37
361 19 485 -6 47 -13 96 -14 110 -14 145 -74 326 -153 462 -15 26 -44 77 -65
114 -36 63 -204 320 -227 347 -31 36 -203 265 -212 282 -6 11 -48 70 -94 130
-98 132 -153 234 -159 294 -8 88 62 231 154 314 86 78 506 266 826 371 489
159 1069 236 1403 185z m14238 -1288 c43 -15 120 -53 169 -83 173 -105 191
-115 260 -155 127 -72 568 -355 650 -416 74 -56 186 -151 245 -209 78 -77 253
-262 300 -318 30 -36 57 -67 60 -70 18 -17 110 -133 202 -254 58 -78 115 -152
126 -167 11 -14 54 -76 96 -138 61 -91 82 -133 110 -221 21 -65 34 -122 31
-142 -2 -18 -6 -62 -10 -98 -8 -74 -45 -191 -79 -253 -52 -94 -223 -197 -402
-243 -78 -20 -134 -26 -264 -31 -178 -6 -646 9 -986 32 -197 13 -223 13 -397
-5 -255 -26 -399 -53 -622 -117 -104 -30 -318 -87 -475 -127 -157 -41 -321
-83 -365 -95 -160 -43 -469 -144 -569 -186 -323 -135 -923 -270 -1322 -296
-157 -11 -197 -10 -324 5 -284 34 -502 97 -704 205 -183 98 -182 62 6 -189
118 -159 204 -263 285 -345 100 -103 327 -295 348 -295 3 0 23 -13 43 -29 54
-42 154 -79 262 -97 52 -8 118 -20 145 -25 60 -11 209 -17 605 -24 441 -7 542
-23 667 -105 112 -73 208 -206 244 -337 10 -34 20 -67 23 -71 13 -22 -19 -203
-66 -367 -28 -99 -55 -205 -59 -235 -33 -236 -74 -401 -144 -585 -15 -38 -35
-92 -45 -120 -11 -27 -33 -88 -50 -135 -17 -47 -38 -105 -47 -130 -8 -25 -22
-54 -29 -65 -8 -11 -14 -29 -14 -42 0 -12 -4 -24 -9 -28 -5 -3 -13 -20 -16
-38 -6 -26 -83 -193 -115 -247 -5 -8 -32 -61 -60 -117 -28 -56 -70 -130 -94
-165 -23 -35 -69 -101 -100 -148 -32 -47 -72 -101 -90 -121 -17 -20 -53 -64
-81 -99 -65 -80 -306 -316 -382 -371 -32 -24 -79 -63 -105 -86 -26 -24 -52
-43 -58 -43 -5 0 -29 -17 -51 -37 -44 -40 -88 -69 -154 -103 -22 -11 -60 -31
-84 -45 -24 -14 -48 -25 -52 -25 -5 0 -25 -11 -45 -25 -45 -30 -128 -34 -244
-9 -85 17 -235 100 -289 159 -17 19 -35 35 -40 35 -17 0 -133 129 -186 206
-63 93 -126 217 -150 294 -9 30 -20 63 -26 72 -5 10 -9 28 -9 41 0 22 -20 94
-40 142 -16 40 -40 128 -40 149 0 11 -7 29 -14 39 -8 10 -24 50 -36 90 -12 40
-31 89 -42 110 -11 21 -26 64 -33 95 -8 31 -32 104 -54 161 -23 58 -41 110
-41 116 0 5 -8 26 -18 45 -10 19 -29 69 -41 110 -13 41 -31 95 -41 120 -10 25
-30 79 -45 120 -15 41 -33 89 -40 105 -28 68 -65 194 -65 222 0 16 -7 38 -15
49 -8 10 -15 28 -15 40 0 11 -11 35 -25 54 -14 19 -25 44 -25 57 0 13 -7 38
-16 55 -24 47 -59 165 -110 378 -36 149 -66 347 -59 388 4 19 2 39 -4 46 -13
15 -16 382 -3 399 5 7 9 57 10 113 1 55 4 116 7 135 8 52 63 285 84 364 39
139 83 290 92 310 12 28 50 136 56 160 3 11 14 39 24 62 10 24 19 45 19 49 0
11 123 321 155 389 18 39 38 86 45 105 19 49 198 411 275 555 36 66 70 131 77
145 6 14 17 32 24 40 11 14 28 44 94 168 36 67 111 194 126 212 7 8 24 38 40
65 15 28 45 77 65 110 21 33 48 78 60 100 56 104 172 229 370 400 128 110 368
250 499 291 30 9 62 23 71 30 8 8 21 14 27 14 11 0 181 53 212 66 8 4 29 8 45
10 17 2 48 10 70 18 22 8 76 20 120 26 44 6 100 14 125 18 105 15 253 8 330
-16 217 -68 436 -227 551 -402 90 -136 179 -355 217 -530 49 -226 48 -554 -4
-925 -9 -60 -24 -132 -35 -160 -10 -27 -19 -51 -19 -52 0 -11 92 1 123 15 62
28 181 133 221 195 20 31 92 115 159 185 326 342 677 734 677 756 0 4 23 46
50 92 78 132 126 234 140 294 6 30 14 134 17 230 6 198 7 192 -77 435 -58 168
-66 232 -35 279 47 72 124 83 251 37z m-20626 -3231 c25 -6 56 -18 70 -25 14
-7 45 -18 70 -25 79 -20 265 -94 335 -132 11 -6 43 -23 70 -36 63 -31 223
-140 295 -201 93 -79 225 -214 325 -332 156 -184 162 -192 190 -234 15 -22 44
-60 64 -85 21 -25 46 -58 57 -75 10 -16 40 -58 66 -92 27 -34 48 -65 48 -68 0
-4 79 -127 121 -187 11 -15 19 -30 19 -32 0 -3 29 -52 64 -109 35 -57 76 -126
91 -153 14 -27 30 -56 35 -64 29 -48 131 -274 160 -355 110 -303 199 -555 221
-625 12 -36 36 -110 55 -166 19 -55 41 -126 49 -157 18 -68 33 -124 75 -272
17 -60 31 -117 31 -125 0 -8 3 -22 6 -30 7 -18 6 -13 36 -135 13 -55 48 -168
77 -250 28 -83 63 -184 76 -225 14 -41 29 -84 33 -95 5 -11 15 -40 22 -65 7
-25 16 -49 19 -55 4 -5 13 -28 20 -50 7 -22 17 -46 23 -53 5 -7 7 -15 4 -19
-4 -3 -3 -11 2 -17 4 -6 20 -51 36 -101 15 -49 31 -97 36 -106 4 -9 26 -90 49
-180 22 -90 47 -186 55 -214 35 -121 59 -481 38 -585 -18 -95 -32 -137 -70
-215 -50 -102 -54 -109 -114 -168 -131 -130 -305 -204 -384 -163 -16 9 -46 16
-65 16 -19 0 -58 8 -85 19 -151 56 -224 87 -255 108 -19 12 -40 23 -46 23 -6
0 -21 11 -34 25 -13 14 -31 25 -40 25 -9 0 -25 9 -34 19 -10 11 -30 22 -44 26
-15 3 -43 19 -62 34 -19 15 -64 42 -98 60 -35 17 -76 43 -90 56 -38 35 -135
105 -145 105 -5 0 -25 12 -43 28 -19 15 -49 39 -68 55 -18 15 -37 27 -42 27
-4 0 -29 18 -55 40 -26 22 -52 40 -58 40 -5 0 -38 27 -73 60 -35 34 -80 70
-100 80 -20 11 -43 28 -50 38 -7 10 -60 57 -118 105 -95 78 -365 336 -416 397
-12 14 -54 56 -95 94 -41 38 -81 81 -89 96 -8 16 -37 52 -63 82 -129 143 -208
239 -238 289 -18 30 -48 72 -66 93 -18 22 -33 45 -33 51 0 7 -17 32 -39 56
-21 24 -42 55 -46 69 -4 14 -20 42 -36 62 -16 20 -34 49 -41 65 -7 15 -33 63
-59 105 -26 42 -51 87 -55 100 -4 13 -17 39 -30 58 -13 19 -24 41 -24 48 0 8
-8 26 -18 40 -31 44 -186 329 -266 487 -152 299 -215 490 -253 765 -45 329 0
1192 81 1548 59 258 163 462 324 633 79 84 127 113 212 128 30 5 74 14 97 20
67 17 175 27 208 20 17 -3 50 -12 75 -19z m11481 -636 c41 -31 125 -101 186
-156 151 -133 202 -217 238 -393 9 -44 23 -101 31 -127 22 -67 16 -168 -26
-461 -6 -37 -10 -156 -10 -265 0 -188 1 -200 27 -272 14 -41 28 -77 30 -79 7
-10 15 10 23 61 11 68 25 106 80 209 47 87 130 184 152 177 14 -5 97 -108 98
-121 0 -5 11 -32 24 -60 13 -29 32 -81 42 -117 10 -36 35 -109 56 -163 34 -87
37 -105 32 -155 -4 -31 -12 -66 -18 -77 -6 -11 -14 -58 -18 -105 -11 -130 -35
-242 -61 -277 -5 -7 -12 -36 -17 -65 -9 -58 -37 -143 -76 -226 -13 -29 -24
-58 -24 -65 0 -17 -77 -213 -94 -240 -8 -12 -26 -51 -39 -87 -13 -36 -38 -87
-54 -115 -16 -27 -48 -90 -72 -139 -45 -92 -131 -240 -207 -356 -24 -37 -44
-72 -44 -79 0 -6 -8 -19 -18 -29 -9 -9 -40 -51 -67 -92 -27 -41 -66 -93 -86
-115 -20 -22 -45 -54 -55 -71 -11 -17 -34 -44 -52 -59 -31 -26 -36 -27 -72
-16 -63 19 -131 89 -178 183 -43 86 -67 184 -82 330 -4 42 -13 91 -19 110 -31
95 -46 208 -81 623 -6 72 -24 216 -40 320 -16 105 -32 249 -35 320 -9 181 13
480 57 765 11 74 24 216 28 315 8 172 25 295 50 360 12 30 62 258 80 366 6 31
17 74 26 95 9 20 20 64 25 97 7 42 21 76 50 118 22 33 53 89 69 124 21 46 35
65 48 65 10 0 52 -25 93 -56z m10678 -79 c79 -28 190 -81 255 -123 61 -39 180
-144 238 -209 68 -77 95 -120 185 -298 42 -82 91 -177 109 -210 19 -33 36 -67
40 -75 3 -8 11 -24 17 -35 6 -11 28 -51 47 -90 20 -38 49 -92 63 -120 31 -57
107 -269 107 -297 0 -10 4 -26 9 -36 17 -30 49 -144 71 -252 33 -157 37 -189
47 -305 7 -97 7 -226 -2 -345 -7 -105 -9 -122 -33 -240 -11 -58 -28 -145 -37
-195 -31 -176 -87 -352 -130 -414 -41 -61 -173 -189 -260 -254 -97 -72 -233
-138 -297 -145 -27 -2 -48 -8 -48 -12 0 -32 -376 -21 -396 11 -3 5 -15 9 -27
9 -23 0 -125 36 -142 50 -13 11 -156 82 -225 113 -30 13 -91 40 -135 59 -44
20 -114 46 -155 58 -41 13 -101 31 -134 41 -162 51 -446 77 -621 56 -203 -24
-345 -48 -345 -59 0 -4 -13 -8 -29 -8 -37 0 -93 -45 -73 -58 7 -5 82 -12 165
-15 193 -8 276 -29 431 -108 152 -77 206 -113 287 -191 169 -163 286 -411 343
-725 38 -205 27 -359 -39 -559 -32 -96 -44 -119 -104 -194 -193 -240 -620
-594 -867 -718 -126 -63 -348 -148 -489 -187 -71 -20 -157 -45 -190 -56 -56
-17 -532 -128 -775 -179 -58 -13 -133 -31 -168 -41 -35 -10 -105 -24 -155 -30
-51 -5 -132 -20 -181 -31 -73 -17 -107 -19 -185 -14 -151 11 -167 13 -189 25
-11 6 -34 11 -51 11 -17 0 -48 6 -68 14 -21 7 -65 21 -98 31 -69 20 -138 54
-210 104 -72 50 -102 79 -151 145 -65 86 -62 120 21 332 81 206 102 248 178
354 154 215 284 360 422 468 39 31 111 94 160 141 50 47 193 166 319 265 413
323 466 375 594 576 36 58 96 148 133 200 115 164 324 522 388 665 56 124 172
492 236 745 21 80 61 217 90 305 66 196 86 277 120 470 32 185 34 190 107 350
138 299 185 379 325 557 306 389 699 590 1338 687 88 13 86 13 164 -14z
m-12319 -980 c0 -16 14 -39 39 -64 43 -43 61 -103 82 -265 22 -169 -6 -954
-46 -1266 -18 -148 -43 -374 -50 -470 -3 -41 -12 -142 -20 -225 -28 -291 -44
-481 -50 -570 -11 -176 -26 -364 -50 -625 -14 -146 -32 -353 -40 -460 -21
-263 -58 -486 -121 -731 -25 -99 -38 -159 -65 -309 -6 -36 -26 -126 -44 -201
-19 -76 -41 -186 -51 -245 -10 -60 -21 -113 -24 -117 -8 -9 -63 59 -70 88 -3
11 -13 20 -23 20 -26 0 -34 16 -45 88 -6 37 -18 82 -26 99 -9 17 -16 40 -16
51 0 11 -7 44 -15 74 -8 29 -22 77 -30 106 -8 30 -15 63 -15 75 0 12 -9 44
-20 72 -11 28 -20 70 -20 94 0 25 -6 48 -14 55 -8 7 -17 35 -21 64 -4 28 -13
61 -20 72 -7 11 -16 38 -20 59 -4 22 -13 49 -21 60 -8 11 -14 42 -14 68 0 26
-9 76 -19 110 -29 96 -50 192 -66 308 -9 58 -22 134 -30 170 -8 36 -15 88 -15
115 0 28 -7 82 -16 120 -17 81 -30 395 -27 665 5 394 34 590 119 825 23 66 70
206 104 310 207 644 269 822 380 1080 92 217 105 242 205 399 108 172 165 274
165 295 0 10 3 21 7 24 13 14 23 6 23 -18z m-3942 -1975 c122 -20 243 -91 381
-224 144 -140 233 -275 315 -477 15 -35 48 -102 75 -149 113 -196 178 -372
265 -720 186 -739 229 -1089 162 -1331 -83 -299 -122 -409 -186 -519 -73 -125
-208 -230 -335 -260 -27 -7 -111 -31 -185 -53 -229 -69 -407 -62 -586 22 -263
123 -528 440 -659 788 -25 66 -117 402 -189 688 -19 77 -39 184 -45 237 -34
309 24 712 146 1018 61 153 178 383 251 495 160 244 190 292 196 313 12 36
102 121 153 144 40 18 104 32 163 37 8 0 43 -4 78 -9z m7979 -1045 c91 -46
192 -137 243 -220 19 -31 44 -71 55 -88 35 -53 157 -372 225 -582 46 -143 121
-496 120 -563 -1 -59 6 -129 24 -242 26 -163 28 -199 17 -347 -13 -174 -70
-437 -123 -573 -29 -75 -150 -324 -187 -385 -17 -27 -34 -57 -38 -65 -15 -32
-104 -155 -140 -194 -21 -23 -55 -52 -76 -65 -20 -12 -37 -27 -37 -32 0 -5 -5
-9 -12 -9 -6 0 -46 -22 -89 -50 -43 -27 -85 -50 -93 -50 -8 0 -18 -4 -21 -10
-7 -12 -126 -67 -270 -124 -174 -70 -383 -102 -686 -105 -178 -2 -382 18 -499
48 -19 6 -46 13 -60 16 -67 18 -163 53 -233 87 -43 21 -81 38 -86 38 -4 0 -16
9 -26 20 -10 11 -24 20 -32 20 -7 0 -16 7 -19 15 -4 8 -12 15 -20 15 -8 0 -22
9 -31 20 -10 11 -22 20 -27 20 -5 0 -48 39 -95 88 -83 85 -213 270 -241 342
-7 19 -17 40 -21 45 -6 10 -15 43 -24 95 -2 14 -9 53 -15 88 -18 102 -13 203
19 377 17 93 81 278 109 317 9 13 28 45 42 71 30 58 89 119 276 287 76 69 206
191 289 271 156 153 347 327 456 416 35 29 168 158 294 288 230 237 512 521
543 548 9 8 32 33 50 56 29 35 66 64 163 124 80 49 167 46 276 -8z"/>
</g>
</svg>
